<svg xmlns:dc="http://purl.org/dc/elements/1.1/" xmlns:cc="http://creativecommons.org/ns#" xmlns:rdf="http://www.w3.org/1999/02/22-rdf-syntax-ns#" xmlns:svg="http://www.w3.org/2000/svg" xmlns="http://www.w3.org/2000/svg" xmlns:sodipodi="http://sodipodi.sourceforge.net/DTD/sodipodi-0.dtd" xmlns:inkscape="http://www.inkscape.org/namespaces/inkscape" id="Capa_1" x="0px" y="0px" viewBox="0 0 14 14" xml:space="preserve" inkscape:version="0.91 r13725" sodipodi:docname="email-white.svg" width="14" height="14"><metadata></metadata><defs id="defs41"></defs><g id="g3" transform="matrix(0.02734375,0,0,0.02734375,0.13559322,1.6542969)" style="fill:#ffffff;fill-opacity:1"><g id="g5" style="fill:#ffffff;fill-opacity:1"><path d="m 492,291.5 c 11.046,0 20,-8.954 20,-20 l 0,-131 c 0,-44.112 -35.888,-80 -80,-80 l -352,0 c -44.112,0 -80,35.888 -80,80 l 0,231 c 0,44.112 35.888,80 80,80 l 352,0 c 44.112,0 80,-35.888 80,-80 0,-11.046 -8.954,-20 -20,-20 -11.046,0 -20,8.954 -20,20 0,22.056 -17.944,40 -40,40 l -352,0 c -22.056,0 -40,-17.944 -40,-40 l 0,-226.762 173.755,108.045 c 13.029,8.101 27.637,12.152 42.245,12.152 14.608,0 29.216,-4.051 42.245,-12.152 L 472,144.738 472,271.5 c 0,11.046 8.954,20 20,20 z M 277.122,218.814 c -13.028,8.101 -29.216,8.102 -42.244,0 L 56.689,108.012 C 63.257,103.286 71.309,100.5 80,100.5 l 352,0 c 8.691,0 16.743,2.787 23.311,7.513 L 277.122,218.814 Z" id="path7" inkscape:connector-curvature="0" style="fill:#ffffff;fill-opacity:1"></path></g></g><g id="g9" transform="translate(0,-498)"></g><g id="g11" transform="translate(0,-498)"></g><g id="g13" transform="translate(0,-498)"></g><g id="g15" transform="translate(0,-498)"></g><g id="g17" transform="translate(0,-498)"></g><g id="g19" transform="translate(0,-498)"></g><g id="g21" transform="translate(0,-498)"></g><g id="g23" transform="translate(0,-498)"></g><g id="g25" transform="translate(0,-498)"></g><g id="g27" transform="translate(0,-498)"></g><g id="g29" transform="translate(0,-498)"></g><g id="g31" transform="translate(0,-498)"></g><g id="g33" transform="translate(0,-498)"></g><g id="g35" transform="translate(0,-498)"></g><g id="g37" transform="translate(0,-498)"></g></svg>