<?xml version="1.0" encoding="UTF-8" standalone="no"?>
<!-- Generator: Adobe Illustrator 19.0.0, SVG Export Plug-In . SVG Version: 6.00 Build 0)  -->

<svg
   xmlns:dc="http://purl.org/dc/elements/1.1/"
   xmlns:cc="http://creativecommons.org/ns#"
   xmlns:rdf="http://www.w3.org/1999/02/22-rdf-syntax-ns#"
   xmlns:svg="http://www.w3.org/2000/svg"
   xmlns="http://www.w3.org/2000/svg"
   xmlns:sodipodi="http://sodipodi.sourceforge.net/DTD/sodipodi-0.dtd"
   xmlns:inkscape="http://www.inkscape.org/namespaces/inkscape"
   version="1.1"
   id="Capa_1"
   x="0px"
   y="0px"
   viewBox="0 0 20 20"
   xml:space="preserve"
   inkscape:version="0.91 r13725"
   sodipodi:docname="icon-10.svg"
   width="20"
   height="20"><metadata
     id="metadata61"><rdf:RDF><cc:Work
         rdf:about=""><dc:format>image/svg+xml</dc:format><dc:type
           rdf:resource="http://purl.org/dc/dcmitype/StillImage" /><dc:title></dc:title></cc:Work></rdf:RDF></metadata><defs
     id="defs59" /><sodipodi:namedview
     pagecolor="#ffffff"
     bordercolor="#666666"
     borderopacity="1"
     objecttolerance="10"
     gridtolerance="10"
     guidetolerance="10"
     inkscape:pageopacity="0"
     inkscape:pageshadow="2"
     inkscape:window-width="1101"
     inkscape:window-height="705"
     id="namedview57"
     showgrid="false"
     inkscape:zoom="10.429825"
     inkscape:cx="12.204759"
     inkscape:cy="-1.7069485"
     inkscape:window-x="935"
     inkscape:window-y="326"
     inkscape:window-maximized="0"
     inkscape:current-layer="Capa_1" /><g
     id="g3"
     transform="matrix(0.0390625,0,0,0.03906154,0,0.17803186)"
     style="fill:#ffffff;fill-opacity:1"><g
       id="g5"
       style="fill:#ffffff;fill-opacity:1"><path
         d="M 467,61 45,61 c -6.927,0 -13.412,1.703 -19.279,4.51 L 255,294.789 306.389,245.402 c 0,0 0.004,-0.005 0.005,-0.007 10e-4,-0.002 0.005,-0.004 0.005,-0.004 L 486.286,65.514 C 480.418,62.705 473.929,61 467,61 Z"
         id="path7"
         inkscape:connector-curvature="0"
         style="fill:#ffffff;fill-opacity:1" /></g></g><g
     id="g9"
     transform="matrix(0.0390625,0,0,0.03906154,0,0.17803186)"
     style="fill:#ffffff;fill-opacity:1"><g
       id="g11"
       style="fill:#ffffff;fill-opacity:1"><path
         d="M 507.496,86.728 338.213,256.002 507.49,425.279 C 510.297,419.412 512,412.927 512,406 l 0,-300 c 0,-6.923 -1.699,-13.407 -4.504,-19.272 z"
         id="path13"
         inkscape:connector-curvature="0"
         style="fill:#ffffff;fill-opacity:1" /></g></g><g
     id="g15"
     transform="matrix(0.0390625,0,0,0.03906154,0,0.17803186)"
     style="fill:#ffffff;fill-opacity:1"><g
       id="g17"
       style="fill:#ffffff;fill-opacity:1"><path
         d="M 4.51,86.721 C 1.703,92.588 0,99.073 0,106 l 0,300 c 0,6.923 1.701,13.409 4.506,19.274 L 173.789,256 4.51,86.721 Z"
         id="path19"
         inkscape:connector-curvature="0"
         style="fill:#ffffff;fill-opacity:1" /></g></g><g
     id="g21"
     transform="matrix(0.0390625,0,0,0.03906154,0,0.17803186)"
     style="fill:#ffffff;fill-opacity:1"><g
       id="g23"
       style="fill:#ffffff;fill-opacity:1"><path
         d="m 317.002,277.213 -51.396,49.393 c -2.93,2.93 -6.768,4.395 -10.605,4.395 -3.837,0 -7.676,-1.465 -10.605,-4.395 L 195,277.211 25.714,446.486 C 31.582,449.295 38.071,451 45,451 l 422,0 c 6.927,0 13.412,-1.703 19.279,-4.51 L 317.002,277.213 Z"
         id="path25"
         inkscape:connector-curvature="0"
         style="fill:#ffffff;fill-opacity:1" /></g></g><g
     id="g27"
     transform="translate(0,-492)" /><g
     id="g29"
     transform="translate(0,-492)" /><g
     id="g31"
     transform="translate(0,-492)" /><g
     id="g33"
     transform="translate(0,-492)" /><g
     id="g35"
     transform="translate(0,-492)" /><g
     id="g37"
     transform="translate(0,-492)" /><g
     id="g39"
     transform="translate(0,-492)" /><g
     id="g41"
     transform="translate(0,-492)" /><g
     id="g43"
     transform="translate(0,-492)" /><g
     id="g45"
     transform="translate(0,-492)" /><g
     id="g47"
     transform="translate(0,-492)" /><g
     id="g49"
     transform="translate(0,-492)" /><g
     id="g51"
     transform="translate(0,-492)" /><g
     id="g53"
     transform="translate(0,-492)" /><g
     id="g55"
     transform="translate(0,-492)" /></svg>