<?xml version="1.0" encoding="UTF-8" standalone="no"?>
<!-- Generator: Adobe Illustrator 19.0.0, SVG Export Plug-In . SVG Version: 6.00 Build 0)  -->

<svg
   xmlns:dc="http://purl.org/dc/elements/1.1/"
   xmlns:cc="http://creativecommons.org/ns#"
   xmlns:rdf="http://www.w3.org/1999/02/22-rdf-syntax-ns#"
   xmlns:svg="http://www.w3.org/2000/svg"
   xmlns="http://www.w3.org/2000/svg"
   xmlns:sodipodi="http://sodipodi.sourceforge.net/DTD/sodipodi-0.dtd"
   xmlns:inkscape="http://www.inkscape.org/namespaces/inkscape"
   version="1.1"
   id="Capa_1"
   x="0px"
   y="0px"
   viewBox="0 0 20 20"
   xml:space="preserve"
   inkscape:version="0.91 r13725"
   sodipodi:docname="icon-8.svg"
   width="20"
   height="20"><metadata
     id="metadata43"><rdf:RDF><cc:Work
         rdf:about=""><dc:format>image/svg+xml</dc:format><dc:type
           rdf:resource="http://purl.org/dc/dcmitype/StillImage" /><dc:title></dc:title></cc:Work></rdf:RDF></metadata><defs
     id="defs41" /><sodipodi:namedview
     pagecolor="#ffffff"
     bordercolor="#666666"
     borderopacity="1"
     objecttolerance="10"
     gridtolerance="10"
     guidetolerance="10"
     inkscape:pageopacity="0"
     inkscape:pageshadow="2"
     inkscape:window-width="1116"
     inkscape:window-height="727"
     id="namedview39"
     showgrid="false"
     inkscape:zoom="7.375"
     inkscape:cx="11.932203"
     inkscape:cy="0.92508603"
     inkscape:window-x="925"
     inkscape:window-y="192"
     inkscape:window-maximized="0"
     inkscape:current-layer="Capa_1" /><g
     id="g3"
     transform="matrix(0.0390625,0,0,0.0390625,-0.41671134,0.1355926)"
     style="fill:#ffffff;fill-opacity:1"><g
       id="g5"
       style="fill:#ffffff;fill-opacity:1"><path
         d="M 256,0 C 148.48,0 61,87.48 61,195 c 0,42.55 13.44,82.98 38.9,116.9 l 144.08,194.051 c 0.36,0.47 0.91,0.65 1.31,1.07 7.2,7.71 17.59,5.77 22.72,-1.07 C 309.5,450.591 385.55,347.2 414.79,308.2 c 0,0 0.01,-0.03 0.02,-0.05 l 0.18,-0.24 C 438.55,274.81 451,235.77 451,195 451,87.48 363.52,0 256,0 Z m 0,300.2 c -57.89,0 -105.2,-47.31 -105.2,-105.2 0,-57.89 47.31,-105.2 105.2,-105.2 57.89,0 105.2,47.31 105.2,105.2 0,57.89 -47.31,105.2 -105.2,105.2 z"
         id="path7"
         inkscape:connector-curvature="0"
         style="fill:#ffffff;fill-opacity:1" /></g></g><g
     id="g9"
     transform="translate(0,-492)" /><g
     id="g11"
     transform="translate(0,-492)" /><g
     id="g13"
     transform="translate(0,-492)" /><g
     id="g15"
     transform="translate(0,-492)" /><g
     id="g17"
     transform="translate(0,-492)" /><g
     id="g19"
     transform="translate(0,-492)" /><g
     id="g21"
     transform="translate(0,-492)" /><g
     id="g23"
     transform="translate(0,-492)" /><g
     id="g25"
     transform="translate(0,-492)" /><g
     id="g27"
     transform="translate(0,-492)" /><g
     id="g29"
     transform="translate(0,-492)" /><g
     id="g31"
     transform="translate(0,-492)" /><g
     id="g33"
     transform="translate(0,-492)" /><g
     id="g35"
     transform="translate(0,-492)" /><g
     id="g37"
     transform="translate(0,-492)" /></svg>