<?xml version="1.0" encoding="UTF-8" standalone="no"?>
<!-- Generator: Adobe Illustrator 19.0.0, SVG Export Plug-In . SVG Version: 6.00 Build 0)  -->

<svg
   xmlns:dc="http://purl.org/dc/elements/1.1/"
   xmlns:cc="http://creativecommons.org/ns#"
   xmlns:rdf="http://www.w3.org/1999/02/22-rdf-syntax-ns#"
   xmlns:svg="http://www.w3.org/2000/svg"
   xmlns="http://www.w3.org/2000/svg"
   xmlns:sodipodi="http://sodipodi.sourceforge.net/DTD/sodipodi-0.dtd"
   xmlns:inkscape="http://www.inkscape.org/namespaces/inkscape"
   version="1.1"
   id="Capa_1"
   x="0px"
   y="0px"
   viewBox="0 0 20 20"
   xml:space="preserve"
   inkscape:version="0.91 r13725"
   sodipodi:docname="icon-9.svg"
   width="20"
   height="20"><metadata
     id="metadata43"><rdf:RDF><cc:Work
         rdf:about=""><dc:format>image/svg+xml</dc:format><dc:type
           rdf:resource="http://purl.org/dc/dcmitype/StillImage" /><dc:title></dc:title></cc:Work></rdf:RDF></metadata><defs
     id="defs41" /><sodipodi:namedview
     pagecolor="#ffffff"
     bordercolor="#666666"
     borderopacity="1"
     objecttolerance="10"
     gridtolerance="10"
     guidetolerance="10"
     inkscape:pageopacity="0"
     inkscape:pageshadow="2"
     inkscape:window-width="1158"
     inkscape:window-height="877"
     id="namedview39"
     showgrid="false"
     inkscape:zoom="9.8333333"
     inkscape:cx="7.9125395"
     inkscape:cy="7.9125395"
     inkscape:window-x="879"
     inkscape:window-y="145"
     inkscape:window-maximized="0"
     inkscape:current-layer="Capa_1" /><g
     id="g3"
     transform="matrix(0.0520832,0,0,0.0520832,0,5.12e-5)"
     style="fill:#ffffff;fill-opacity:1"><g
       id="g5"
       style="fill:#ffffff;fill-opacity:1"><path
         d="m 353.188,252.052 c -23.51,0 -46.594,-3.677 -68.469,-10.906 -10.719,-3.656 -23.896,-0.302 -30.438,6.417 l -43.177,32.594 C 161.031,253.428 130.187,222.594 103.823,172.897 l 31.635,-42.052 c 8.219,-8.208 11.167,-20.198 7.635,-31.448 C 135.833,77.407 132.145,54.334 132.145,30.814 132.146,13.823 118.323,0 101.333,0 L 30.813,0 C 13.823,0 0,13.823 0,30.813 0,225.563 158.438,384 353.188,384 c 16.99,0 30.813,-13.823 30.813,-30.813 l 0,-70.323 C 384,265.875 370.177,252.052 353.188,252.052 Z"
         id="path7"
         inkscape:connector-curvature="0"
         style="fill:#ffffff;fill-opacity:1" /></g></g><g
     id="g9"
     transform="translate(0,-364)" /><g
     id="g11"
     transform="translate(0,-364)" /><g
     id="g13"
     transform="translate(0,-364)" /><g
     id="g15"
     transform="translate(0,-364)" /><g
     id="g17"
     transform="translate(0,-364)" /><g
     id="g19"
     transform="translate(0,-364)" /><g
     id="g21"
     transform="translate(0,-364)" /><g
     id="g23"
     transform="translate(0,-364)" /><g
     id="g25"
     transform="translate(0,-364)" /><g
     id="g27"
     transform="translate(0,-364)" /><g
     id="g29"
     transform="translate(0,-364)" /><g
     id="g31"
     transform="translate(0,-364)" /><g
     id="g33"
     transform="translate(0,-364)" /><g
     id="g35"
     transform="translate(0,-364)" /><g
     id="g37"
     transform="translate(0,-364)" /></svg>