<svg xmlns:dc="http://purl.org/dc/elements/1.1/" xmlns:cc="http://creativecommons.org/ns#" xmlns:rdf="http://www.w3.org/1999/02/22-rdf-syntax-ns#" xmlns:svg="http://www.w3.org/2000/svg" xmlns="http://www.w3.org/2000/svg" xmlns:sodipodi="http://sodipodi.sourceforge.net/DTD/sodipodi-0.dtd" xmlns:inkscape="http://www.inkscape.org/namespaces/inkscape" id="Capa_1" x="0px" y="0px" viewBox="0 0 14 14" xml:space="preserve" inkscape:version="0.91 r13725" sodipodi:docname="phone-white.svg" width="14" height="14"><metadata></metadata><defs id="defs47"></defs><g id="g3" transform="matrix(0.02734379,0,0,0.02734379,1.8423618e-4,1.4887385e-5)" style="fill:#ffffff;fill-opacity:1"><g id="g5" style="fill:#ffffff;fill-opacity:1"><g id="g7" style="fill:#ffffff;fill-opacity:1"><path d="m 267.998,61.092 c 0.337,0 0.665,-0.002 1,-0.002 48.74,0 94.412,18.844 128.686,53.118 34.557,34.557 53.459,80.618 53.225,129.697 -0.052,11.045 8.859,20.042 19.905,20.095 0.033,0 0.064,0 0.097,0 10.999,0 19.944,-8.892 19.997,-19.905 C 491.193,184.258 468.13,128.086 425.968,85.923 384.134,44.088 328.43,21.09 269.004,21.09 c -0.365,0 -0.733,0.001 -1.099,0.002 -11.046,0.053 -19.957,9.05 -19.905,20.095 0.053,11.013 8.997,19.905 19.998,19.905 z" id="path9" inkscape:connector-curvature="0" style="fill:#ffffff;fill-opacity:1"></path><path d="m 511.949,412.553 c -0.714,-19.805 -8.964,-38.287 -23.229,-52.042 -27.931,-26.933 -51.332,-42.481 -73.646,-48.929 -30.75,-8.887 -59.226,-0.805 -84.641,24.016 -0.038,0.037 -0.077,0.075 -0.115,0.113 l -27.066,26.865 c -16.811,-9.444 -49.491,-30.227 -85.234,-65.971 l -2.632,-2.63 c -35.508,-35.507 -56.423,-68.373 -65.939,-85.253 l 26.839,-27.041 c 0.038,-0.038 0.075,-0.076 0.113,-0.115 24.821,-25.414 32.902,-53.892 24.016,-84.64 C 193.967,74.613 178.42,51.211 151.486,23.28 137.731,9.015 119.249,0.765 99.446,0.051 79.647,-0.662 60.614,6.232 45.865,19.472 l -0.574,0.516 c -0.267,0.239 -0.527,0.486 -0.78,0.739 -29.36,29.358 -44.75,70.46 -44.508,118.861 0.41,82.22 45.599,176.249 120.879,251.528 0.063,0.063 0.125,0.124 0.188,0.186 14.152,14.132 30.22,28.116 47.762,41.567 8.765,6.721 21.319,5.063 28.041,-3.702 6.721,-8.766 5.064,-21.32 -3.702,-28.041 -16.236,-12.448 -31.041,-25.333 -44.004,-38.296 -0.062,-0.062 -0.124,-0.124 -0.187,-0.185 C 81.095,294.683 40.361,211.239 40.002,139.387 39.816,102.111 51.029,70.998 72.433,49.373 l 0.153,-0.138 c 14.538,-13.048 36.548,-12.254 50.108,1.808 51.781,53.698 48.031,79.049 25.151,102.511 l -37.074,37.353 c -5.814,5.858 -7.433,14.686 -4.075,22.226 0.941,2.114 23.709,52.427 80.414,109.132 l 2.632,2.629 c 56.698,56.699 107.011,79.466 109.125,80.408 7.54,3.359 16.368,1.739 22.226,-4.075 l 37.346,-37.068 c 23.466,-22.883 48.818,-26.638 102.518,25.145 14.062,13.56 14.856,35.57 1.81,50.105 l -0.141,0.157 c -21.45,21.229 -52.231,32.433 -89.102,32.433 -0.303,0 -0.608,0 -0.912,-0.002 -29.471,-0.147 -63.598,-8.226 -98.689,-23.362 -10.142,-4.376 -21.911,0.3 -26.286,10.443 -4.375,10.142 0.301,21.911 10.443,26.286 40.562,17.496 79.029,26.456 114.332,26.633 0.375,10e-4 0.748,0.002 1.122,0.002 47.914,-0.001 88.608,-15.379 117.738,-44.51 0.254,-0.254 0.5,-0.513 0.739,-0.78 l 0.519,-0.577 c 13.236,-14.747 20.133,-33.775 19.419,-53.579 z" id="path11" inkscape:connector-curvature="0" style="fill:#ffffff;fill-opacity:1"></path><path d="m 369.457,142.549 c -21.453,-21.454 -42.043,-27.147 -51.939,-29.884 -10.649,-2.945 -21.663,3.299 -24.607,13.946 -2.944,10.646 3.299,21.663 13.946,24.607 8.092,2.238 20.32,5.62 34.316,19.615 13.473,13.473 17.052,25.636 19.421,33.685 l 0.289,0.979 c 2.574,8.697 10.538,14.329 19.169,14.329 1.88,0.001 3.792,-0.267 5.686,-0.828 10.591,-3.135 16.636,-14.263 13.5,-24.854 l -0.271,-0.918 c -3.085,-10.482 -8.827,-29.994 -29.51,-50.677 z" id="path13" inkscape:connector-curvature="0" style="fill:#ffffff;fill-opacity:1"></path></g></g></g><g id="g15" transform="translate(0,-497.99899)"></g><g id="g17" transform="translate(0,-497.99899)"></g><g id="g19" transform="translate(0,-497.99899)"></g><g id="g21" transform="translate(0,-497.99899)"></g><g id="g23" transform="translate(0,-497.99899)"></g><g id="g25" transform="translate(0,-497.99899)"></g><g id="g27" transform="translate(0,-497.99899)"></g><g id="g29" transform="translate(0,-497.99899)"></g><g id="g31" transform="translate(0,-497.99899)"></g><g id="g33" transform="translate(0,-497.99899)"></g><g id="g35" transform="translate(0,-497.99899)"></g><g id="g37" transform="translate(0,-497.99899)"></g><g id="g39" transform="translate(0,-497.99899)"></g><g id="g41" transform="translate(0,-497.99899)"></g><g id="g43" transform="translate(0,-497.99899)"></g></svg>