<svg xmlns:dc="http://purl.org/dc/elements/1.1/" xmlns:cc="http://creativecommons.org/ns#" xmlns:rdf="http://www.w3.org/1999/02/22-rdf-syntax-ns#" xmlns:svg="http://www.w3.org/2000/svg" xmlns="http://www.w3.org/2000/svg" height="14" width="14" xml:space="preserve" viewBox="0 0 14 14" y="0px" x="0px" id="Capa_1"><metadata></metadata><defs id="defs47"></defs><g style="fill:#ffffff;fill-opacity:0.94117647" transform="matrix(0.02734375,0,0,0.02734375,0.10538672,0)" id="g3"><g style="fill:#ffffff;fill-opacity:0.94117647" id="g5"><path style="fill:#ffffff;fill-opacity:0.94117647" id="path7" d="m 256,80 c -68.925,0 -125,56.075 -125,125 0,68.925 56.075,125 125,125 11.641,0 23.175,-1.603 34.282,-4.765 10.624,-3.023 16.784,-14.087 13.761,-24.711 -3.025,-10.623 -14.087,-16.785 -24.712,-13.76 C 271.787,288.911 263.937,290 256,290 c -46.869,0 -85,-38.131 -85,-85 0,-46.869 38.131,-85 85,-85 46.869,0 85,38.131 85,85 0,8.339 -1.2,16.57 -3.567,24.463 -3.173,10.58 2.832,21.729 13.412,24.902 10.581,3.171 21.728,-2.831 24.902,-13.412 C 379.232,229.33 381,217.234 381,205 381,136.075 324.925,80 256,80 Z"></path></g></g><g style="fill:#ffffff;fill-opacity:0.94117647" transform="matrix(0.02734375,0,0,0.02734375,0.10538672,0)" id="g9"><g style="fill:#ffffff;fill-opacity:0.94117647" id="g11"><path style="fill:#ffffff;fill-opacity:0.94117647" id="path13" d="M 400.877,59.964 C 362.167,21.296 310.715,0 256,0 201.284,0 149.833,21.296 111.123,59.965 72.417,98.631 51.066,150.053 51.003,204.803 c 0.039,39.855 11.109,77.247 33.841,114.315 19.685,32.097 45.258,60.103 72.332,89.753 26.547,29.071 53.996,59.133 75.918,93.815 3.665,5.798 10.047,9.314 16.906,9.314 l 12,0 c 6.859,0 13.241,-3.516 16.906,-9.315 21.922,-34.682 49.371,-64.744 75.918,-93.815 27.074,-29.649 52.647,-57.655 72.332,-89.753 22.733,-37.068 33.802,-74.461 33.841,-114.358 C 460.935,150.052 439.583,98.63 400.877,59.964 Z M 325.286,381.899 C 301.682,407.748 277.395,434.346 256,464.936 234.606,434.346 210.318,407.748 186.714,381.899 135.395,325.698 91.073,277.16 91.003,204.806 91.107,113.932 165.125,40 256,40 c 90.875,0 164.893,73.932 164.997,164.763 -0.07,72.397 -44.392,120.934 -95.711,177.136 z"></path></g></g><g transform="translate(0,-498)" id="g15"></g><g transform="translate(0,-498)" id="g17"></g><g transform="translate(0,-498)" id="g19"></g><g transform="translate(0,-498)" id="g21"></g><g transform="translate(0,-498)" id="g23"></g><g transform="translate(0,-498)" id="g25"></g><g transform="translate(0,-498)" id="g27"></g><g transform="translate(0,-498)" id="g29"></g><g transform="translate(0,-498)" id="g31"></g><g transform="translate(0,-498)" id="g33"></g><g transform="translate(0,-498)" id="g35"></g><g transform="translate(0,-498)" id="g37"></g><g transform="translate(0,-498)" id="g39"></g><g transform="translate(0,-498)" id="g41"></g><g transform="translate(0,-498)" id="g43"></g></svg>