<svg xmlns:dc="http://purl.org/dc/elements/1.1/" xmlns:cc="http://creativecommons.org/ns#" xmlns:rdf="http://www.w3.org/1999/02/22-rdf-syntax-ns#" xmlns:svg="http://www.w3.org/2000/svg" xmlns="http://www.w3.org/2000/svg" xmlns:sodipodi="http://sodipodi.sourceforge.net/DTD/sodipodi-0.dtd" xmlns:inkscape="http://www.inkscape.org/namespaces/inkscape" id="Capa_1" x="0px" y="0px" viewBox="0 0 18 18" xml:space="preserve" inkscape:version="0.91 r13725" sodipodi:docname="check-azure.svg" width="18" height="18"><metadata></metadata><defs id="defs41"></defs><g id="g3" style="fill:#79a1bb;fill-opacity:1" transform="matrix(0.03515682,0,0,0.03515799,2.4121079e-4,1.8746814)"><g id="g5" style="fill:#79a1bb;fill-opacity:1"><path d="m 504.219,58.222 c -9.13,-7.53 -22.527,-6.186 -30.015,2.901 L 190.483,405.62 36.42,251.579 c -8.341,-8.341 -21.823,-8.341 -30.164,0 -8.341,8.341 -8.341,21.823 0,30.164 l 170.66,170.66 c 3.989,4.032 9.429,6.25 15.082,6.25 0.341,0 0.683,0 1.024,-0.021 6.037,-0.277 11.626,-3.093 15.445,-7.744 L 507.12,88.236 c 7.488,-9.109 6.208,-22.527 -2.901,-30.014 z" id="path7" style="fill:#79a1bb;fill-opacity:1" inkscape:connector-curvature="0"></path></g></g><g id="g9" transform="translate(0,-493.992)"></g><g id="g11" transform="translate(0,-493.992)"></g><g id="g13" transform="translate(0,-493.992)"></g><g id="g15" transform="translate(0,-493.992)"></g><g id="g17" transform="translate(0,-493.992)"></g><g id="g19" transform="translate(0,-493.992)"></g><g id="g21" transform="translate(0,-493.992)"></g><g id="g23" transform="translate(0,-493.992)"></g><g id="g25" transform="translate(0,-493.992)"></g><g id="g27" transform="translate(0,-493.992)"></g><g id="g29" transform="translate(0,-493.992)"></g><g id="g31" transform="translate(0,-493.992)"></g><g id="g33" transform="translate(0,-493.992)"></g><g id="g35" transform="translate(0,-493.992)"></g><g id="g37" transform="translate(0,-493.992)"></g></svg>