<svg xmlns:dc="http://purl.org/dc/elements/1.1/" xmlns:cc="http://creativecommons.org/ns#" xmlns:rdf="http://www.w3.org/1999/02/22-rdf-syntax-ns#" xmlns:svg="http://www.w3.org/2000/svg" xmlns="http://www.w3.org/2000/svg" xmlns:sodipodi="http://sodipodi.sourceforge.net/DTD/sodipodi-0.dtd" xmlns:inkscape="http://www.inkscape.org/namespaces/inkscape" id="Capa_1" x="0px" y="0px" viewBox="0 0 18 18" xml:space="preserve" inkscape:version="0.91 r13725" sodipodi:docname="fishs-white.svg" width="18" height="18"><metadata></metadata><defs id="defs53"></defs><g id="g3" transform="matrix(0.03515625,0,0,0.03515627,2.7002651e-5,2.8029247)" style="fill:#ffffff;fill-opacity:1"><g id="g5" style="fill:#ffffff;fill-opacity:1"><g id="g7" style="fill:#ffffff;fill-opacity:1"><path d="m 434.818,224.465 0,-14.557 c 0,-4.143 -3.358,-7.5 -7.5,-7.5 -4.143,0 -7.5,3.357 -7.5,7.5 l 0,14.557 c 0,4.143 3.357,7.5 7.5,7.5 4.143,0 7.5,-3.357 7.5,-7.5 z" id="path9" inkscape:connector-curvature="0" style="fill:#ffffff;fill-opacity:1"></path><path d="m 81.505,293.46 c -3.134,-2.709 -7.87,-2.363 -10.579,0.771 -4.647,5.379 -22.025,24.131 -28.979,30.47 -3.061,2.791 -3.28,7.534 -0.49,10.596 1.48,1.623 3.508,2.447 5.545,2.447 1.804,0 3.613,-0.646 5.051,-1.957 7.461,-6.802 25.273,-26.02 30.224,-31.749 2.708,-3.134 2.362,-7.871 -0.772,-10.578 z" id="path11" inkscape:connector-curvature="0" style="fill:#ffffff;fill-opacity:1"></path><path d="m 52.052,176.215 c -3.061,-2.79 -7.805,-2.571 -10.595,0.49 -2.79,3.062 -2.571,7.805 0.49,10.596 6.954,6.339 24.332,25.091 28.979,30.47 1.483,1.717 3.575,2.597 5.679,2.597 1.737,0 3.482,-0.6 4.9,-1.825 3.134,-2.707 3.48,-7.443 0.772,-10.578 -4.951,-5.73 -22.764,-24.948 -30.225,-31.75 z" id="path13" inkscape:connector-curvature="0" style="fill:#ffffff;fill-opacity:1"></path><path d="m 365.636,315.95 c 5.893,0 11.433,-2.295 15.599,-6.461 4.167,-4.166 6.462,-9.706 6.462,-15.6 0,-5.893 -2.295,-11.434 -6.461,-15.6 l -75.778,-75.777 c -8.603,-8.601 -22.598,-8.601 -31.197,0 -4.167,4.166 -6.462,9.706 -6.462,15.6 0,5.893 2.295,11.433 6.461,15.6 l 75.778,75.777 c 4.166,4.166 9.706,6.461 15.598,6.461 z m -82.838,-97.837 c 0,-1.886 0.734,-3.659 2.068,-4.992 1.376,-1.377 3.185,-2.066 4.992,-2.066 1.808,0 3.616,0.689 4.992,2.066 l 75.779,75.777 c 1.333,1.333 2.067,3.106 2.067,4.992 0,1.886 -0.734,3.659 -2.068,4.992 -1.333,1.334 -3.106,2.068 -4.992,2.068 -1.886,0 -3.659,-0.734 -4.992,-2.068 l -75.779,-75.777 c -1.333,-1.333 -2.067,-3.107 -2.067,-4.992 z" id="path15" inkscape:connector-curvature="0" style="fill:#ffffff;fill-opacity:1"></path><path d="m 283.891,300.951 c -1.886,0 -3.659,-0.734 -4.992,-2.068 l -42.328,-42.327 c -2.929,-2.928 -7.678,-2.928 -10.606,0 -2.929,2.93 -2.929,7.678 0,10.607 l 42.327,42.327 c 4.167,4.166 9.707,6.461 15.6,6.461 5.892,0 11.431,-2.294 15.599,-6.461 4.167,-4.166 6.462,-9.706 6.462,-15.6 0,-5.893 -2.295,-11.434 -6.461,-15.6 l -75.779,-75.777 c -8.601,-8.601 -22.596,-8.601 -31.196,0 -4.167,4.166 -6.462,9.706 -6.462,15.6 0,5.893 2.295,11.433 6.462,15.6 l 8.82,8.819 c 2.929,2.928 7.678,2.929 10.606,-0.001 2.929,-2.929 2.929,-7.678 0,-10.606 l -8.82,-8.819 c -1.334,-1.333 -2.068,-3.106 -2.068,-4.992 0,-1.886 0.734,-3.659 2.068,-4.992 2.752,-2.753 7.232,-2.755 9.985,0 l 75.779,75.777 c 1.333,1.333 2.067,3.106 2.067,4.992 0,1.886 -0.734,3.659 -2.067,4.991 -1.338,1.334 -3.111,2.069 -4.996,2.069 z" id="path17" inkscape:connector-curvature="0" style="fill:#ffffff;fill-opacity:1"></path><path d="m 502.844,263.81 c -7.958,-3.895 -17.502,-7.204 -26.842,-9.379 7.485,-3.574 15.636,-6.527 23.359,-8.417 4.492,-1.098 8.195,-4.129 10.161,-8.315 1.976,-4.209 1.939,-9.025 -0.101,-13.212 -12.272,-25.208 -38.544,-46.885 -75.975,-62.687 -24.761,-10.453 -52.805,-17.609 -82.69,-21.246 -9.501,-23.805 -26.928,-43.609 -49.502,-56.095 -12.841,-7.104 -28.079,-6.875 -40.767,0.605 -12.802,7.549 -20.445,20.912 -20.445,35.749 l 0,22.367 c -31.409,5.453 -60.233,14.915 -84.313,27.916 -12.618,6.813 -23.492,14.364 -32.525,22.487 -4.621,-10.496 -10.617,-19.464 -17.907,-26.752 C 83.827,145.36 52.442,139.356 29.895,138.1 c -8.037,-0.447 -15.909,2.561 -21.6,8.251 -5.692,5.692 -8.7,13.565 -8.252,21.602 1.255,22.547 7.259,53.933 28.73,75.402 4.246,4.246 9.114,8.097 14.467,11.445 0.529,0.331 0.64,0.834 0.64,1.198 0,0.364 -0.111,0.867 -0.64,1.198 -5.353,3.349 -10.221,7.199 -14.467,11.445 -21.469,21.47 -27.473,52.854 -28.728,75.402 -0.447,8.037 2.561,15.91 8.252,21.602 5.321,5.32 12.547,8.295 20.03,8.295 0.522,0 1.046,-0.015 1.57,-0.044 22.547,-1.256 53.933,-7.26 75.402,-28.729 7.29,-7.29 13.287,-16.259 17.907,-26.753 9.033,8.125 19.908,15.676 32.525,22.488 24.08,13.002 52.905,22.463 84.313,27.916 l 0,22.367 c 0,14.837 7.643,28.2 20.444,35.749 6.525,3.848 13.725,5.776 20.926,5.776 6.802,0 13.604,-1.721 19.841,-5.171 22.584,-12.492 40.017,-32.309 49.516,-56.13 18.596,-2.28 36.591,-5.911 53.359,-10.826 3.976,-1.165 6.253,-5.332 5.088,-9.307 -1.165,-3.976 -5.331,-6.251 -9.307,-5.088 -29.119,8.535 -62.174,13.047 -95.593,13.047 -18.918,0 -37.417,-1.404 -55.098,-4.107 -0.341,-0.078 -0.69,-0.133 -1.048,-0.163 -31.969,-4.991 -61.219,-14.254 -85.316,-27.263 -15.089,-8.147 -27.339,-17.325 -36.511,-27.188 -0.349,-0.481 -0.751,-0.925 -1.21,-1.314 -12.054,-13.446 -18.414,-28.127 -18.414,-43.202 0,-15.075 6.361,-29.756 18.414,-43.202 0.459,-0.389 0.861,-0.834 1.21,-1.314 9.172,-9.864 21.422,-19.042 36.511,-27.188 24.096,-13.011 53.347,-22.273 85.316,-27.263 0.357,-0.03 0.706,-0.085 1.048,-0.163 17.681,-2.703 36.18,-4.107 55.098,-4.107 13.54,0 26.837,0.723 39.787,2.116 0.31,0.053 0.625,0.082 0.942,0.095 29.965,3.305 58.003,10.277 82.567,20.645 33.55,14.164 57.815,33.851 68.322,55.435 0.024,0.049 0.069,0.141 0.008,0.271 -0.044,0.095 -0.091,0.105 -0.145,0.119 -12.35,3.019 -25.127,8.208 -35.982,14.609 -4.266,2.517 -6.402,7.288 -5.443,12.157 0.961,4.876 4.754,8.487 9.665,9.199 10.705,1.55 22.746,5.241 32.213,9.874 0.623,0.305 0.899,1.021 0.628,1.63 -9.567,21.505 -32.81,41.326 -65.447,55.816 -3.786,1.681 -5.492,6.112 -3.811,9.897 1.681,3.786 6.11,5.495 9.897,3.811 36.56,-16.23 61.826,-38.163 73.066,-63.426 3.567,-8.018 0.168,-17.331 -7.741,-21.199 z m -247.802,107.283 0,0 c 9.32,1.211 18.825,2.085 28.47,2.597 -2.549,9.138 -5.001,16.289 -5.794,17.788 -1.965,3.645 -0.604,8.193 3.039,10.16 1.134,0.611 2.353,0.9 3.556,0.9 2.668,0 5.251,-1.427 6.607,-3.938 1.956,-3.625 5.34,-14.442 7.998,-24.397 1.796,0.025 3.596,0.038 5.399,0.038 9.807,0 19.584,-0.388 29.259,-1.125 -8.652,17.366 -22.384,31.79 -39.582,41.304 -8.146,4.505 -17.823,4.354 -25.888,-0.401 -8.181,-4.824 -13.064,-13.358 -13.064,-22.828 l 0,-20.098 z M 91.721,256.001 c 0,17.9 6.924,35.093 20.044,50.656 -4.127,11.311 -9.856,20.688 -17.074,27.905 -10.003,10.004 -29.508,22.349 -65.63,24.36 -3.833,0.218 -7.443,-1.165 -10.161,-3.882 -2.717,-2.717 -4.096,-6.325 -3.882,-10.161 2.012,-36.122 14.357,-55.628 24.359,-65.629 3.446,-3.446 7.422,-6.587 11.815,-9.336 4.813,-3.01 7.686,-8.212 7.686,-13.915 0,-5.703 -2.873,-10.905 -7.685,-13.915 -4.394,-2.749 -8.37,-5.89 -11.816,-9.336 -10.003,-10.002 -22.348,-29.507 -24.359,-65.629 -0.213,-3.836 1.165,-7.444 3.882,-10.161 2.717,-2.716 6.324,-4.099 10.161,-3.882 36.122,2.012 55.628,14.357 65.63,24.36 7.217,7.217 12.946,16.594 17.074,27.905 -13.12,15.568 -20.044,32.76 -20.044,50.66 z M 304.317,137.763 c -1.803,0 -3.603,0.013 -5.399,0.038 -2.659,-9.956 -6.043,-20.772 -7.998,-24.397 -1.962,-3.634 -6.479,-4.974 -10.122,-3.026 -3.643,1.946 -5.013,6.498 -3.08,10.148 0.794,1.498 3.245,8.65 5.794,17.788 -9.646,0.512 -19.151,1.387 -28.47,2.597 l 0,-20.095 c 0,-9.471 4.884,-18.005 13.064,-22.828 8.064,-4.756 17.743,-4.904 25.888,-0.401 17.191,9.51 30.92,23.927 39.572,41.283 -9.61,-0.721 -19.368,-1.107 -29.249,-1.107 z" id="path19" inkscape:connector-curvature="0" style="fill:#ffffff;fill-opacity:1"></path></g></g></g><g id="g21" transform="translate(0,-493.99899)"></g><g id="g23" transform="translate(0,-493.99899)"></g><g id="g25" transform="translate(0,-493.99899)"></g><g id="g27" transform="translate(0,-493.99899)"></g><g id="g29" transform="translate(0,-493.99899)"></g><g id="g31" transform="translate(0,-493.99899)"></g><g id="g33" transform="translate(0,-493.99899)"></g><g id="g35" transform="translate(0,-493.99899)"></g><g id="g37" transform="translate(0,-493.99899)"></g><g id="g39" transform="translate(0,-493.99899)"></g><g id="g41" transform="translate(0,-493.99899)"></g><g id="g43" transform="translate(0,-493.99899)"></g><g id="g45" transform="translate(0,-493.99899)"></g><g id="g47" transform="translate(0,-493.99899)"></g><g id="g49" transform="translate(0,-493.99899)"></g></svg>