<svg width="14" height="14"><metadata></metadata><defs></defs><g transform="matrix(0.03281251,0,0,0.03281251,0,1.6765664)" style="fill:#5c5c5c;fill-opacity:1"><g style="fill:#5c5c5c;fill-opacity:1"><path d="m 421.876,56.307 c -6.548,-6.78 -17.352,-6.968 -24.132,-0.42 -0.142,0.137 -0.282,0.277 -0.42,0.42 L 119.257,334.375 28.923,244.041 c -6.78,-6.548 -17.584,-6.36 -24.132,0.42 -6.388,6.614 -6.388,17.099 0,23.713 l 102.4,102.4 c 6.665,6.663 17.468,6.663 24.132,0 L 421.456,80.44 c 6.78,-6.549 6.968,-17.353 0.42,-24.133 z" style="fill:#5c5c5c;fill-opacity:1"></path></g></g><g transform="translate(0,-412.66699)"></g><g transform="translate(0,-412.66699)"></g><g transform="translate(0,-412.66699)"></g><g transform="translate(0,-412.66699)"></g><g transform="translate(0,-412.66699)"></g><g transform="translate(0,-412.66699)"></g><g transform="translate(0,-412.66699)"></g><g transform="translate(0,-412.66699)"></g><g transform="translate(0,-412.66699)"></g><g transform="translate(0,-412.66699)"></g><g transform="translate(0,-412.66699)"></g><g transform="translate(0,-412.66699)"></g><g transform="translate(0,-412.66699)"></g><g transform="translate(0,-412.66699)"></g><g transform="translate(0,-412.66699)"></g></svg>