<svg xmlns:dc="http://purl.org/dc/elements/1.1/" xmlns:cc="http://creativecommons.org/ns#" xmlns:rdf="http://www.w3.org/1999/02/22-rdf-syntax-ns#" xmlns:svg="http://www.w3.org/2000/svg" xmlns="http://www.w3.org/2000/svg" xmlns:sodipodi="http://sodipodi.sourceforge.net/DTD/sodipodi-0.dtd" xmlns:inkscape="http://www.inkscape.org/namespaces/inkscape" viewBox="0 -1 18 18" id="svg2" inkscape:version="0.91 r13725" sodipodi:docname="restaur.svg" width="18" height="18"><metadata></metadata><defs id="defs12"></defs><path d="m 13.380133,6.2567164 1.057575,-0.067017 c 0.0018,-1.406e-4 0.0037,-2.813e-4 0.0057,-4.114e-4 0.753664,-0.063583 1.43015,-0.4584053 1.856146,-1.0835285 l 0.835993,-1.2266253 c 0.727709,-1.0678736 1.009647,-2.3576709 0.793627,-3.63167522 -0.04243,-0.25021417 -0.170425,-0.48079037 -0.360215,-0.64901859 -0.189926,-0.16836572 -0.434099,-0.26779235 -0.687609,-0.27987723 -1.291172,-0.0617982 -2.537438,0.37284915 -3.510281,1.22332993 L 12.253482,1.5189912 c -0.569506,0.4978191 -0.88042,1.2167382 -0.853228,1.9727363 1.4e-4,0.00179 1.4e-4,0.00371 2.81e-4,0.00563 l 0.06029,1.0578478 c 0.02349,0.4124 -0.127715,0.819307 -0.414048,1.1156638 L 2.3156298,14.640398 c -0.2337349,0.24376 -0.3544476,0.578157 -0.3397533,0.941668 0.016205,0.400177 0.1998145,0.793214 0.4912278,1.051531 0.2632607,0.233322 0.6251241,0.366257 0.9868501,0.366257 0.038727,0 0.077454,-0.0015 0.1160436,-0.0047 0.3626871,-0.02898 0.6803305,-0.188829 0.8953887,-0.451677 L 12.321598,6.8021887 C 12.582111,6.481662 12.968007,6.2828091 13.380133,6.2567164 Z M 11.902193,6.4627106 4.0466687,16.203206 C 3.9266428,16.349875 3.7420719,16.440237 3.5270138,16.457403 3.2711687,16.477866 3.0088694,16.392721 2.8251224,16.229848 2.6413755,16.066838 2.5254693,15.816625 2.5151696,15.56023 c -0.00879,-0.21547 0.05864,-0.409515 0.1885535,-0.544922 L 11.434174,6.0464651 C 11.825563,5.641481 12.031557,5.0868078 11.999697,4.5245813 L 11.939407,3.46948 c -0.02046,-0.5917521 0.223298,-1.1543903 0.669207,-1.5442685 l 1.117588,-0.97709836 c 0.867374,-0.75819511 1.978919,-1.14532658 3.129465,-1.09066942 0.131013,0.006317 0.257082,0.05767812 0.355272,0.14474487 0.09819,0.08692958 0.164246,0.20613131 0.186219,0.33535854 0.192536,1.13585087 -0.05878,2.28557207 -0.707522,3.23753927 l -0.836062,1.226763 C 15.52,5.291291 14.990595,5.6006943 14.400627,5.6513687 l -1.054691,0.066742 c -0.561951,0.035706 -1.087924,0.3067936 -1.443745,0.7445998 z m 0,0" id="path4" inkscape:connector-curvature="0" style="fill:#ffffff;fill-opacity:0.94117647"></path><path d="M 17.501531,14.572283 11.647309,9.2401964 c -0.110138,-0.1003877 -0.280701,-0.092423 -0.381226,0.017716 -0.100251,0.1101381 -0.09229,0.2808385 0.01785,0.3812263 l 5.852711,5.3308513 c 0.139252,0.128678 0.218217,0.318329 0.222474,0.533935 0.0051,0.256532 -0.09558,0.5132 -0.269304,0.686922 -0.173583,0.173584 -0.429841,0.274522 -0.686921,0.269303 -0.215608,-0.0043 -0.40526,-0.08322 -0.532565,-0.220963 l -5.2166,-5.727184 c -0.100387,-0.110275 -0.271088,-0.118103 -0.381227,-0.01785 -0.110138,0.100388 -0.118103,0.271089 -0.01772,0.381226 l 5.217836,5.728557 c 0.22934,0.248017 0.555911,0.388642 0.919696,0.395783 0.0094,1.41e-4 0.01881,2.81e-4 0.02829,2.81e-4 0.390977,0 0.781954,-0.158615 1.050708,-0.427506 0.275483,-0.275483 0.435197,-0.678818 0.427232,-1.079134 -0.0072,-0.363785 -0.147629,-0.690354 -0.397019,-0.921069 z m 0,0" id="path6" inkscape:connector-curvature="0" style="fill:#ffffff;fill-opacity:0.94117647"></path><path d="m 3.2557879,6.2056301 c 0.4465956,0.4114385 1.026813,0.6459972 1.6338095,0.660554 0.00192,1.406e-4 0.00385,1.406e-4 0.00563,1.406e-4 l 1.0596345,0.00329 c 0.4130873,0.00123 0.810107,0.1766053 1.0887487,0.4802406 L 7.5103938,7.862231 c 0.053283,0.058502 0.1262058,0.088166 0.1995398,0.088166 0.064819,0 0.1299137,-0.023208 0.1815496,-0.070312 C 8.0017595,7.7797002 8.0097245,7.6090001 7.9093366,7.4988618 L 7.441867,6.9857993 C 7.0611893,6.5707903 6.5198361,6.331837 5.9566477,6.3299143 l -1.0567506,-0.0033 C 4.4303673,6.3146691 3.9814371,6.1349051 3.6335815,5.8200089 L 0.56275557,2.1695204 c -0.0313111,-0.037353 -0.0289765,-0.091461 0.005493,-0.1259309 0.0236208,-0.023758 0.0513613,-0.027192 0.0657809,-0.027192 0.0144196,0 0.0421602,0.00343 0.0659181,0.027192 L 3.4951532,4.8389284 c 0.2763069,0.2763065 0.7259241,0.2763065 1.0022309,-1.407e-4 l 0.3284924,-0.3283543 0,-1.406e-4 0.5832383,-0.5832375 c 0,0 1.406e-4,0 1.406e-4,-1.408e-4 0,0 1.407e-4,-1.406e-4 1.407e-4,-1.406e-4 L 5.7377509,3.5984195 c 0.2763073,-0.2763064 0.2763073,-0.7259229 0,-1.0022293 L 2.9425392,-0.19899868 c -0.036255,-0.0362549 -0.036255,-0.0954442 0,-0.13169907 0.03447,-0.0344696 0.088577,-0.0368041 0.1259311,-0.005493 L 6.7189643,2.7347682 C 7.033998,3.082486 7.2137627,3.531553 7.2257102,4.0009446 l 0.00315,1.0568867 c 0.00192,0.5630502 0.2410133,1.1044024 0.6565724,1.4859033 L 8.3855942,6.9992564 C 8.4958698,7.0996439 8.6664331,7.0916788 8.7668209,6.9815408 8.8670715,6.8712653 8.8591064,6.7007023 8.7489679,6.6003145 L 8.2496393,6.1454798 C 7.9451795,5.866152 7.7699472,5.4689952 7.768574,5.0560461 L 7.765284,3.9964127 c 0,-0.00192 0,-0.00385 -1.407e-4,-0.00577 -0.01456,-0.6069959 -0.2491185,-1.1872125 -0.6605577,-1.6338073 -0.00769,-0.00837 -0.01593,-0.016343 -0.02472,-0.023758 L 3.4157767,-0.74914014 c -0.2532356,-0.2131351 -0.6207295,-0.19720513 -0.854739,0.0368039 -0.2467812,0.2467811 -0.2467812,0.64819447 0,0.89483816 L 5.3562432,2.977841 c 0.065918,0.065918 0.065918,0.1731724 0,0.2390904 L 5.2185017,3.3545353 2.103181,0.23935661 c -0.1053317,-0.10546895 -0.2761697,-0.10546895 -0.3815015,0 -0.1053318,0.10533147 -0.1053318,0.27616935 0,0.38150083 L 4.8370003,3.7361736 4.6351258,3.9379104 1.5198052,0.82273167 c -0.1053318,-0.10533184 -0.2761698,-0.10533184 -0.3815016,0 -0.105469,0.10533147 -0.105469,0.27616933 0,0.38150083 L 4.2534869,4.3195487 4.1158828,4.45729 c -0.065918,0.065918 -0.1731725,0.065918 -0.2390907,0 L 1.0814492,1.6620887 C 0.96197255,1.5426119 0.80308228,1.4766939 0.63402961,1.4766939 c -0.16905267,0 -0.32794294,0.065918 -0.44741962,0.1853948 -0.23400955,0.2340092 -0.24980245,0.6015022 -0.0368044,0.854875 L 3.2321671,6.1809106 c 0.00728,0.00879 0.015244,0.017029 0.023621,0.024719 z m 0,0" id="path8" inkscape:connector-curvature="0" style="fill:#ffffff;fill-opacity:0.94117647"></path></svg>