<svg xmlns:dc="http://purl.org/dc/elements/1.1/" xmlns:cc="http://creativecommons.org/ns#" xmlns:rdf="http://www.w3.org/1999/02/22-rdf-syntax-ns#" xmlns:svg="http://www.w3.org/2000/svg" xmlns="http://www.w3.org/2000/svg" xmlns:sodipodi="http://sodipodi.sourceforge.net/DTD/sodipodi-0.dtd" xmlns:inkscape="http://www.inkscape.org/namespaces/inkscape" id="Capa_1" x="0px" y="0px" viewBox="0 0 18 18" xml:space="preserve" inkscape:version="0.91 r13725" sodipodi:docname="salads-white.svg" width="18" height="18"><metadata></metadata><defs id="defs57"></defs><g id="g3" transform="matrix(0.03515625,0,0,0.03515625,0,-0.1909297)" style="fill:#ffff6a;fill-opacity:1"><g id="g5" style="fill:#ffff6a;fill-opacity:1"><path style="fill:#ffffff;fill-opacity:1" inkscape:connector-curvature="0" id="path9" d="m 152.753,265.20189 c 0.913,0.366 1.857,0.539 2.784,0.539 2.976,0 5.792,-1.783 6.965,-4.716 l 2.089,-5.22 c 1.539,-3.845 -0.331,-8.21 -4.177,-9.749 -3.844,-1.541 -8.211,0.33 -9.749,4.177 l -2.089,5.22 c -1.539,3.846 0.331,8.21 4.177,9.749 z"></path><path style="fill:#ffffff;fill-opacity:1" inkscape:connector-curvature="0" id="path11" d="m 249.096,186.80889 c -1.822,-3.719 -6.315,-5.258 -10.035,-3.434 -3.72,1.823 -5.257,6.316 -3.434,10.035 l 1.483,3.026 c 1.303,2.657 3.968,4.201 6.74,4.201 1.107,0 2.233,-0.247 3.295,-0.768 3.72,-1.823 5.257,-6.316 3.434,-10.035 l -1.483,-3.025 z"></path><path style="fill:#ffffff;fill-opacity:1" inkscape:connector-curvature="0" id="path13" d="m 400.564,224.50189 c -4.132,-0.049 -7.556,3.229 -7.627,7.371 -0.07,4.142 3.229,7.557 7.371,7.627 l 20.368,0.347 c 0.044,0.001 0.087,0.001 0.131,0.001 4.082,0 7.426,-3.275 7.496,-7.372 0.07,-4.142 -3.229,-7.557 -7.371,-7.627 l -20.368,-0.347 z"></path><path style="fill:#ffffff;fill-opacity:1" inkscape:connector-curvature="0" id="path15" d="m 490.022,279.50989 -50.031,0 -4.659,-0.954 c -0.305,-0.063 -1.115,-0.229 -1.201,-1.362 -0.086,-1.136 0.689,-1.422 0.981,-1.529 l 42.276,-15.603 c 13.77,-5.082 21.379,-19.629 17.699,-33.837 -3.649,-14.09 -15.322,-24.483 -29.738,-26.479 l -14.485,-2.006 c -3.616,-0.501 -6.962,-2.261 -9.421,-4.955 -2.792,-3.06 -7.535,-3.275 -10.596,-0.483 -3.059,2.792 -3.275,7.536 -0.482,10.596 4.814,5.275 11.363,8.72 18.441,9.699 l 14.486,2.006 c 8.374,1.159 15.154,7.197 17.273,15.382 1.741,6.72 -1.858,13.6 -8.371,16.004 l -42.276,15.603 c -6.991,2.58 -11.31,9.307 -10.745,16.737 0.03,0.399 0.081,0.791 0.138,1.181 l -67.56,0 32.427,-89.093 c 1.417,-3.893 -0.591,-8.196 -4.482,-9.613 -3.898,-1.415 -8.197,0.591 -9.613,4.482 l -34.295,94.224 -34.22,0 -30.471,-20.015 c -3.461,-2.274 -8.111,-1.312 -10.386,2.151 -2.275,3.462 -1.311,8.111 2.151,10.386 l 11.384,7.478 -31.82,0 7.067,-21.759 c 4.779,-14.711 -0.906,-30.366 -12.927,-38.864 2.463,-0.09 5.044,0.43 7.559,1.791 l 22.978,12.438 c 2.512,1.359 5.222,2.023 7.902,2.023 4.313,0 8.549,-1.715 11.761,-5.001 5.209,-5.33 6.225,-13.258 2.527,-19.729 l -22.357,-39.127 c -1.451,-2.539 -1.984,-5.354 -1.705,-8.064 0.008,-0.056 0.022,-0.111 0.029,-0.168 0.011,-0.095 0.012,-0.188 0.02,-0.282 0.488,-3.555 2.392,-6.89 5.532,-9.128 1.943,-1.386 4.064,-2.387 6.264,-3.03 0.249,-0.058 0.494,-0.131 0.735,-0.214 5.39,-1.361 11.205,-0.519 16.12,2.566 l 12.386,7.774 c 13.085,8.212 30.315,5.377 40.075,-6.603 l 14.667,-18.001 c 9.326,-11.446 24.915,-15.742 38.787,-10.693 13.874,5.049 23.052,18.361 22.84,33.123 l -0.06,4.166 c -0.06,4.142 3.248,7.549 7.39,7.608 0.037,0.001 0.074,0.001 0.111,0.001 4.092,0 7.438,-3.286 7.497,-7.391 l 0.061,-4.167 c 0.305,-21.143 -12.84,-40.205 -32.707,-47.437 -19.873,-7.232 -42.191,-1.076 -55.547,15.314 l -14.667,18.001 c -4.986,6.118 -13.785,7.568 -20.472,3.372 l -12.386,-7.774 c -7.958,-4.995 -17.286,-6.554 -26.089,-4.774 -7.278,-2.567 -14.875,-3.88 -22.625,-3.88 -24.13,0 -45.563,12.733 -57.683,31.965 -3.227,-5.212 -7.871,-9.595 -13.651,-12.558 l -1.117,-0.573 c -22.691,-11.628 -50.923,-5.782 -67.126,13.906 -6.71,8.151 -17.837,11.073 -27.686,7.281 -21.184,-8.167 -45.137,-0.021 -56.952,19.368 -9.932,16.298 -9.058,36.774 2.227,52.165 l 13.199,18.007 c 2.471,3.369 3.776,7.358 3.776,11.537 l 0,6.809 -26.2,0 c -12.12,0.002 -21.979,9.861 -21.979,21.98 0,10.136 0.681,20.215 2.003,30.177 0.027,0.349 0.074,0.692 0.147,1.026 7.174,52.259 32.145,101.19 70.96,137.591 l 8.336,7.818 c 3.021,2.834 7.767,2.682 10.602,-0.34 2.833,-3.022 2.682,-7.768 -0.34,-10.602 l -8.336,-7.818 c -34.332,-32.197 -57.081,-74.876 -65.124,-120.755 l 475.504,0 c -8.043,45.879 -30.792,88.558 -65.124,120.755 l -25.771,24.169 c -13.009,12.201 -29.997,18.921 -47.834,18.921 l -198.046,0 c -14.201,0 -27.895,-4.251 -39.599,-12.292 -3.415,-2.347 -8.083,-1.479 -10.429,1.935 -2.346,3.414 -1.479,8.083 1.935,10.429 14.215,9.767 30.846,14.929 48.093,14.929 l 198.045,0 c 21.663,0 42.295,-8.161 58.096,-22.979 l 25.771,-24.169 c 38.816,-36.401 63.787,-85.333 70.961,-137.591 0.073,-0.334 0.12,-0.677 0.147,-1.026 1.322,-9.962 2.003,-20.042 2.003,-30.177 0,-12.12 -9.859,-21.979 -21.978,-21.979 z m -228.235,-68.854 5.943,0.537 c 0.229,0.021 0.457,0.03 0.684,0.03 1.276,0 2.486,-0.33 3.551,-0.906 l 4.304,7.532 c 0.154,0.271 0.564,0.988 -0.231,1.803 -0.792,0.812 -1.521,0.422 -1.795,0.271 l -22.978,-12.438 c -8.768,-4.745 -19.055,-4.682 -27.572,-0.473 -0.584,-2.369 -0.897,-4.807 -0.897,-7.266 0,-15.876 12.237,-28.94 27.774,-30.274 0.557,3.17 1.656,6.298 3.343,9.25 l 9.737,17.04 -0.512,-0.046 c -4.115,-0.363 -7.771,2.669 -8.144,6.795 -0.375,4.126 2.667,7.772 6.793,8.145 z m -8.597,-64.054 c 1.099,0 2.192,0.046 3.282,0.113 -1.895,2.335 -3.38,4.926 -4.435,7.667 -24.498,0.616 -44.242,20.722 -44.242,45.365 0,2.545 0.238,5.074 0.661,7.567 -4.194,-2.833 -7.119,-7.217 -8.187,-12.123 2.324,-27.323 25.373,-48.589 52.921,-48.589 z m -209.89,87.687 c -7.678,-10.472 -8.272,-24.403 -1.516,-35.491 8.04,-13.193 24.341,-18.731 38.749,-13.178 15.894,6.126 33.84,1.404 44.662,-11.745 11.757,-14.283 32.238,-18.527 48.704,-10.089 l 1.117,0.572 c 7.669,3.932 11.815,12.274 10.318,20.762 -0.672,3.807 -0.673,7.605 -0.094,11.267 0.037,0.386 0.099,0.765 0.193,1.133 2.319,12.045 10.995,22.432 23.18,26.41 l 14.107,4.606 c 10.215,3.335 15.825,14.361 12.506,24.581 l -8.571,26.393 -13.599,0 c 0.992,-4.523 1.51,-9.144 1.51,-13.829 0,-35.639 -28.994,-64.633 -64.632,-64.633 -35.639,0 -64.633,28.994 -64.633,64.633 0,4.686 0.518,9.306 1.51,13.829 l -23.633,0 0,-6.809 c 0,-7.392 -2.311,-14.448 -6.68,-20.406 L 43.3,234.28889 Z m 106.634,-11.809 c -23.82,0 -43.2,19.38 -43.2,43.2 0,4.77 0.769,9.421 2.257,13.829 l -6.723,0 c -1.304,-4.482 -1.967,-9.114 -1.967,-13.829 0,-27.367 22.266,-49.633 49.633,-49.633 27.367,0 49.632,22.266 49.632,49.633 0,4.715 -0.663,9.347 -1.967,13.829 l -6.722,0 c 1.488,-4.407 2.257,-9.058 2.257,-13.829 -10e-4,-23.82 -19.38,-43.2 -43.2,-43.2 z m -1.091,48.618 c -0.682,-4.085 -4.541,-6.854 -8.632,-6.163 l -3.132,0.522 c -4.085,0.682 -6.845,4.546 -6.163,8.632 0.404,2.421 1.929,4.37 3.952,5.42 l -9.495,0 c -2.377,-4.202 -3.64,-8.914 -3.64,-13.829 0,-15.55 12.65,-28.2 28.2,-28.2 15.549,0 28.199,12.65 28.199,28.2 0,4.916 -1.262,9.628 -3.639,13.829 l -30.892,0 c 3.568,-1.067 5.871,-4.641 5.242,-8.411 z m 347.012,52.489 -479.71,0 c -0.758,-7.316 -1.145,-14.692 -1.145,-22.099 0,-3.848 3.131,-6.979 6.979,-6.979 l 74.799,0 c 0.028,10e-4 0.056,0 0.085,0 l 106.027,0 c 0.014,0 0.028,0.002 0.041,0.002 0.009,0 0.018,-0.002 0.026,-0.002 l 29.124,0 c 0.008,0 0.017,0.002 0.025,0.002 0.008,0 0.016,-0.002 0.025,-0.002 l 108.862,0 c 0.015,0 0.03,0.002 0.045,0.002 0.009,0 0.017,-0.002 0.025,-0.002 l 98.135,0 c 0.013,0 0.026,0.002 0.038,0.002 0.015,0 0.03,-0.002 0.045,-0.002 l 50.739,0 c 3.848,0 6.978,3.131 6.978,6.979 0.002,7.407 -0.385,14.783 -1.143,22.099 z"></path><path style="fill:#ffffff;fill-opacity:1" inkscape:connector-curvature="0" id="path17" d="m 319.795,188.03789 c -3.218,-2.607 -7.941,-2.113 -10.549,1.104 -2.608,3.218 -2.114,7.94 1.104,10.549 l 15.825,12.827 c 1.39,1.126 3.059,1.674 4.718,1.674 2.184,0 4.35,-0.949 5.831,-2.777 2.608,-3.218 2.114,-7.94 -1.104,-10.549 l -15.825,-12.828 z"></path></g></g><g id="g25" transform="translate(0,-494)"></g><g id="g27" transform="translate(0,-494)"></g><g id="g29" transform="translate(0,-494)"></g><g id="g31" transform="translate(0,-494)"></g><g id="g33" transform="translate(0,-494)"></g><g id="g35" transform="translate(0,-494)"></g><g id="g37" transform="translate(0,-494)"></g><g id="g39" transform="translate(0,-494)"></g><g id="g41" transform="translate(0,-494)"></g><g id="g43" transform="translate(0,-494)"></g><g id="g45" transform="translate(0,-494)"></g><g id="g47" transform="translate(0,-494)"></g><g id="g49" transform="translate(0,-494)"></g><g id="g51" transform="translate(0,-494)"></g><g id="g53" transform="translate(0,-494)"></g></svg>