<svg xmlns:dc="http://purl.org/dc/elements/1.1/" xmlns:cc="http://creativecommons.org/ns#" xmlns:rdf="http://www.w3.org/1999/02/22-rdf-syntax-ns#" xmlns:svg="http://www.w3.org/2000/svg" xmlns="http://www.w3.org/2000/svg" xmlns:sodipodi="http://sodipodi.sourceforge.net/DTD/sodipodi-0.dtd" xmlns:inkscape="http://www.inkscape.org/namespaces/inkscape" id="Capa_1" x="0px" y="0px" viewBox="0 0 18.000001 18.000001" xml:space="preserve" inkscape:version="0.91 r13725" sodipodi:docname="shrimp-white.svg" width="18" height="18"><metadata></metadata><defs id="defs51"></defs><g id="g3" transform="matrix(0.03515627,0,0,0.03515674,1.2951888e-5,0.24433677)" style="fill:#ffffff;fill-opacity:1"><g id="g5" style="fill:#ffffff;fill-opacity:1"><g id="g7" style="fill:#ffffff;fill-opacity:1"><path d="m 456.01,311.784 c -2.592,-3.23 -7.311,-3.751 -10.543,-1.16 l -65.226,52.299 c -3.232,2.592 -3.751,7.312 -1.16,10.543 1.482,1.848 3.659,2.809 5.856,2.809 1.646,0 3.303,-0.539 4.687,-1.648 l 65.226,-52.299 c 3.232,-2.591 3.751,-7.312 1.16,-10.544 z" id="path9" inkscape:connector-curvature="0" style="fill:#ffffff;fill-opacity:1"></path><path d="m 231.06,129.468 c 0.615,3.665 3.791,6.26 7.388,6.26 0.412,0 0.83,-0.034 1.25,-0.104 4.085,-0.686 6.841,-4.553 6.155,-8.638 l -3.803,-22.661 c -0.686,-4.085 -4.556,-6.841 -8.638,-6.155 -4.085,0.686 -6.841,4.553 -6.155,8.638 l 3.803,22.66 z" id="path11" inkscape:connector-curvature="0" style="fill:#ffffff;fill-opacity:1"></path><path d="m 500.017,291.957 -7.723,-11.029 c -5.826,-8.32 -14.942,-13.86 -25.011,-15.198 -10.069,-1.338 -20.316,1.628 -28.113,8.139 l -94.845,79.192 c -2.733,2.282 -5.188,4.837 -7.348,7.629 -13.714,-3.321 -28.461,-1.844 -41.663,4.851 -18.115,9.188 -37.868,12.367 -57.128,9.203 -18.247,-3.001 -35.033,-11.754 -47.269,-24.649 -3.198,-3.371 -7.212,-5.656 -11.615,-6.684 0.613,-4.309 -0.189,-8.822 -2.521,-12.79 -22.058,-37.534 -18.656,-81.545 8.877,-114.859 2.713,-3.283 4.179,-7.179 4.459,-11.127 4.036,-0.283 8.026,-1.592 11.555,-3.971 17.33,-11.682 41.358,-14.537 62.707,-7.448 9.588,3.183 19.385,4.733 29.057,4.733 23.349,-0.002 45.942,-9.046 62.904,-26.009 l 7.008,-7.008 C 385.84,142.44 394.557,110.617 386.667,79.804 378.772,48.971 355.816,25.237 325.258,16.317 287.413,5.268 248.081,3.997 208.357,12.538 c -18.099,3.891 -36.013,9.869 -53.293,17.697 -0.373,0.129 -0.742,0.28 -1.101,0.473 -0.033,0.018 -0.063,0.039 -0.095,0.058 -17.631,8.087 -34.583,18.116 -50.369,29.86 -9.92,7.381 -16.127,18.704 -17.029,31.064 -0.231,3.162 -0.105,6.308 0.35,9.386 -3.467,-0.672 -7.048,-0.872 -10.651,-0.558 -11.384,0.988 -21.689,6.932 -28.27,16.307 -27.682,39.43 -44.531,86.897 -47.441,133.66 -1.722,27.676 1.413,54.941 9.319,81.035 4.132,13.636 9.598,26.981 16.324,39.962 0.144,0.334 0.31,0.661 0.506,0.978 7.481,14.285 16.497,28.125 27.017,41.405 6.827,8.618 17.036,13.926 28.007,14.561 0.741,0.043 1.479,0.064 2.217,0.064 2.778,0 5.527,-0.312 8.206,-0.897 -0.371,3.008 -0.424,6.078 -0.133,9.162 1.182,12.554 7.837,23.823 18.26,30.918 33.974,23.127 74.003,36.014 115.758,37.268 2.29,0.068 4.579,0.102 6.874,0.102 24.065,-0.001 48.381,-3.794 71.952,-11.11 0.004,-10e-4 0.007,-10e-4 0.011,-0.002 0.371,-0.083 0.724,-0.201 1.068,-0.335 12.143,-3.829 24.089,-8.577 35.687,-14.262 3.72,-1.822 5.257,-6.315 3.435,-10.035 -1.823,-3.72 -6.317,-5.257 -10.035,-3.434 -8.592,4.21 -17.382,7.887 -26.303,11.018 l -2.566,-11.405 c -0.909,-4.042 -4.92,-6.577 -8.963,-5.671 -4.041,0.91 -6.58,4.923 -5.67,8.964 l 2.843,12.636 c -22.342,6.286 -45.286,9.207 -67.881,8.54 -38.894,-1.168 -76.16,-13.157 -107.768,-34.675 -6.716,-4.571 -11.004,-11.833 -11.766,-19.923 -0.761,-8.086 2.094,-16.017 7.835,-21.757 l 53.36,-53.361 c 0.001,-10e-4 0.003,-0.003 0.005,-0.004 1.6,-1.6 3.742,-2.463 5.987,-2.435 2.284,0.029 4.413,0.964 5.993,2.629 14.474,15.255 34.261,25.599 55.716,29.126 22.425,3.686 45.368,0.013 66.347,-10.627 11.084,-5.62 23.625,-6.344 34.926,-2.617 0.384,0.171 0.777,0.307 1.174,0.409 6.28,2.261 12.143,5.909 17.114,10.879 11.353,11.352 15.694,27.079 12.645,41.848 -0.247,0.641 -0.408,1.323 -0.47,2.036 -1.447,5.687 -3.999,11.195 -7.7,16.21 -2.46,3.333 -1.752,8.028 1.581,10.488 1.34,0.989 2.9,1.467 4.448,1.467 2.3,0 4.57,-1.055 6.04,-3.047 3.881,-5.258 6.856,-11.089 8.875,-17.238 6.88,-0.706 13.559,-2.839 19.58,-6.335 l 78.679,-45.682 c 16.01,-9.295 27.477,-24.995 31.461,-43.073 3.986,-18.079 0.182,-37.145 -10.436,-52.308 z m -336.849,51.941 -62.713,62.713 c -4.73,4.73 -11.283,7.225 -17.958,6.836 C 75.793,413.06 69.556,409.816 65.382,404.549 56.675,393.558 49.101,382.26 42.641,370.685 l 11.974,-8.921 c 3.322,-2.476 4.008,-7.174 1.533,-10.495 -2.475,-3.323 -7.175,-4.008 -10.495,-1.534 l -9.981,7.436 C 19.922,323.956 13.119,288.562 15.43,251.415 17.294,221.458 24.809,195.17 33.741,173.699 l 12.447,6.601 c 1.12,0.594 2.322,0.876 3.507,0.876 2.687,0 5.286,-1.449 6.632,-3.988 1.94,-3.659 0.547,-8.199 -3.112,-10.14 l -13.299,-7.053 c 7.101,-14.614 14.472,-26.308 20.26,-34.553 4.029,-5.738 10.332,-9.377 17.292,-9.981 6.908,-0.59 13.674,1.869 18.576,6.771 l 6.756,6.756 c 2.929,2.928 7.678,2.928 10.606,0 2.929,-2.93 2.929,-7.678 0,-10.607 l -3.902,-3.902 c -5.719,-5.718 -8.661,-13.627 -8.072,-21.697 0.584,-8.01 4.602,-15.344 11.022,-20.121 13.195,-9.818 27.247,-18.361 41.832,-25.493 l 13.067,24.348 c 1.353,2.521 3.941,3.955 6.615,3.955 1.197,0 2.412,-0.288 3.54,-0.894 3.649,-1.959 5.021,-6.505 3.062,-10.155 L 167.981,40.966 c 14.207,-5.955 28.805,-10.596 43.529,-13.763 37.262,-8.01 74.119,-6.828 109.545,3.513 25.418,7.421 44.515,27.163 51.082,52.81 6.562,25.627 -0.688,52.094 -19.395,70.8 l -7.008,7.008 c -19.952,19.951 -49.315,26.714 -76.629,17.646 -26.056,-8.65 -54.398,-5.193 -75.819,9.247 -3.471,2.341 -8.181,1.854 -11.195,-1.16 l -44.456,-44.456 c -2.929,-2.928 -7.678,-2.928 -10.606,0 -2.929,2.93 -2.929,7.678 0,10.607 l 44.452,44.451 c 0.001,0.002 0.003,0.003 0.004,0.005 0.002,0.001 0.003,0.003 0.005,0.004 l 2.308,2.308 c 1.697,1.697 1.825,4.371 0.297,6.22 -15.103,18.274 -24.187,40.023 -26.269,62.898 -2.158,23.71 3.381,47.61 16.022,69.118 1.091,1.852 0.811,4.186 -0.68,5.676 z m 332.638,-2.864 c -3.128,14.193 -11.774,26.03 -24.344,33.328 l -78.68,45.682 c -2.845,1.652 -5.903,2.865 -9.07,3.632 0.14,-2.41 0.151,-4.834 0.006,-7.263 -0.89,-14.843 -7.21,-28.846 -17.796,-39.431 -4.246,-4.246 -8.988,-7.759 -14.052,-10.526 0.663,-0.653 1.353,-1.283 2.072,-1.883 l 94.844,-79.191 c 4.65,-3.883 10.519,-5.581 16.523,-4.783 6.004,0.798 11.225,3.97 14.699,8.932 l 7.723,11.029 c 8.335,11.906 11.203,26.28 8.075,40.474 z" id="path13" inkscape:connector-curvature="0" style="fill:#ffffff;fill-opacity:1"></path><path d="m 466.994,339.669 -71.454,43.406 c -3.54,2.15 -4.666,6.764 -2.516,10.304 1.412,2.324 3.884,3.607 6.417,3.607 1.326,0 2.67,-0.351 3.887,-1.091 l 71.454,-43.406 c 3.54,-2.15 4.667,-6.764 2.516,-10.304 -2.151,-3.539 -6.762,-4.667 -10.304,-2.516 z" id="path15" inkscape:connector-curvature="0" style="fill:#ffffff;fill-opacity:1"></path><path d="m 171.775,414.008 -8.495,23.259 c -1.421,3.891 0.581,8.197 4.472,9.618 0.849,0.31 1.718,0.457 2.573,0.457 3.06,0 5.934,-1.888 7.045,-4.929 l 8.495,-23.259 c 1.421,-3.891 -0.581,-8.197 -4.472,-9.618 -3.889,-1.419 -8.197,0.582 -9.618,4.472 z" id="path17" inkscape:connector-curvature="0" style="fill:#ffffff;fill-opacity:1"></path></g></g></g><g id="g19" transform="translate(0,-494.00104)"></g><g id="g21" transform="translate(0,-494.00104)"></g><g id="g23" transform="translate(0,-494.00104)"></g><g id="g25" transform="translate(0,-494.00104)"></g><g id="g27" transform="translate(0,-494.00104)"></g><g id="g29" transform="translate(0,-494.00104)"></g><g id="g31" transform="translate(0,-494.00104)"></g><g id="g33" transform="translate(0,-494.00104)"></g><g id="g35" transform="translate(0,-494.00104)"></g><g id="g37" transform="translate(0,-494.00104)"></g><g id="g39" transform="translate(0,-494.00104)"></g><g id="g41" transform="translate(0,-494.00104)"></g><g id="g43" transform="translate(0,-494.00104)"></g><g id="g45" transform="translate(0,-494.00104)"></g><g id="g47" transform="translate(0,-494.00104)"></g></svg>