<?xml version="1.0" encoding="UTF-8" standalone="no"?>
<svg
   xmlns:dc="http://purl.org/dc/elements/1.1/"
   xmlns:cc="http://creativecommons.org/ns#"
   xmlns:rdf="http://www.w3.org/1999/02/22-rdf-syntax-ns#"
   xmlns:svg="http://www.w3.org/2000/svg"
   xmlns="http://www.w3.org/2000/svg"
   xmlns:sodipodi="http://sodipodi.sourceforge.net/DTD/sodipodi-0.dtd"
   xmlns:inkscape="http://www.inkscape.org/namespaces/inkscape"
   height="20"
   viewBox="0 0 16 16"
   width="20"
   id="svg2"
   version="1.1"
   inkscape:version="0.91 r13725"
   sodipodi:docname="icon-11.svg">
  <metadata
     id="metadata10">
    <rdf:RDF>
      <cc:Work
         rdf:about="">
        <dc:format>image/svg+xml</dc:format>
        <dc:type
           rdf:resource="http://purl.org/dc/dcmitype/StillImage" />
        <dc:title></dc:title>
      </cc:Work>
    </rdf:RDF>
  </metadata>
  <defs
     id="defs8" />
  <sodipodi:namedview
     pagecolor="#ffffff"
     bordercolor="#666666"
     borderopacity="1"
     objecttolerance="10"
     gridtolerance="10"
     guidetolerance="10"
     inkscape:pageopacity="0"
     inkscape:pageshadow="2"
     inkscape:window-width="1147"
     inkscape:window-height="752"
     id="namedview6"
     showgrid="false"
     units="px"
     inkscape:zoom="16.68772"
     inkscape:cx="12.576736"
     inkscape:cy="10.462005"
     inkscape:window-x="849"
     inkscape:window-y="238"
     inkscape:window-maximized="0"
     inkscape:current-layer="svg2" />
  <path
     d="M 8,0 C 3.5886231,0 0,3.5886231 0,8 c 0,4.411377 3.5886231,8 8,8 4.411377,0 8,-3.588623 8,-8 C 16,3.5886231 12.411377,0 8,0 Z m 3.804688,12.137939 c -0.130006,0.130005 -0.30066,0.195435 -0.471314,0.195435 -0.170654,0 -0.341431,-0.06543 -0.471313,-0.195435 L 7.5286866,8.804688 C 7.4033203,8.680054 7.3333741,8.51062 7.3333741,8.333374 L 7.3333741,4 C 7.3333741,3.6313475 7.6319581,3.3333741 8,3.3333741 8.3680419,3.3333741 8.6666259,3.6313475 8.6666259,4 l 0,4.057373 3.1380621,3.13794 c 0.260619,0.260742 0.260619,0.682006 0,0.942626 z m 0,0"
     id="path4"
     inkscape:connector-curvature="0"
     style="fill:#ffffff;fill-opacity:1" />
</svg>
