<svg xmlns:dc="http://purl.org/dc/elements/1.1/" xmlns:cc="http://creativecommons.org/ns#" xmlns:rdf="http://www.w3.org/1999/02/22-rdf-syntax-ns#" xmlns:svg="http://www.w3.org/2000/svg" xmlns="http://www.w3.org/2000/svg" xmlns:sodipodi="http://sodipodi.sourceforge.net/DTD/sodipodi-0.dtd" xmlns:inkscape="http://www.inkscape.org/namespaces/inkscape" height="14" viewBox="0 0 11.2 11.2" width="14" id="svg2" inkscape:version="0.91 r13725" sodipodi:docname="minus-white.svg"><metadata></metadata><defs id="defs8"></defs><path d="m 5.5664424,1.4429772 c -2.2922743,0 -4.1570228,1.9324909 -4.1570228,4.308032 0,2.3755412 1.8647485,4.3080318 4.1570228,4.3080318 2.2922743,0 4.1570228,-1.9324906 4.1570228,-4.3080318 0,-2.3755411 -1.8647485,-4.308032 -4.1570228,-4.308032 z" id="path4" style="fill:#5c5c5c;fill-opacity:1" inkscape:connector-curvature="0" sodipodi:nodetypes="sssss"></path><path inkscape:connector-curvature="0" style="fill:#ffffff;fill-opacity:1" id="path4133" d="M 5.6000004,3e-7 C 2.5120361,3e-7 0,2.5120403 0,5.6000003 0,8.68796 2.5120361,11.2 5.6000004,11.2 8.6879634,11.2 11.2,8.68796 11.2,5.6000003 c 0,-3.08796 -2.5120366,-5.6 -5.5999996,-5.6 z m 2.45,6.06664 -4.9000004,0 c -0.2576294,0 -0.4666382,-0.20901 -0.4666382,-0.46664 0,-0.25763 0.2090088,-0.46664 0.4666382,-0.46664 l 4.9000004,0 c 0.257629,0 0.466638,0.20901 0.466638,0.46664 0,0.25763 -0.209009,0.46664 -0.466638,0.46664 z m 0,0"></path></svg>