<svg xmlns:dc="http://purl.org/dc/elements/1.1/" xmlns:cc="http://creativecommons.org/ns#" xmlns:rdf="http://www.w3.org/1999/02/22-rdf-syntax-ns#" xmlns:svg="http://www.w3.org/2000/svg" xmlns="http://www.w3.org/2000/svg" xmlns:sodipodi="http://sodipodi.sourceforge.net/DTD/sodipodi-0.dtd" xmlns:inkscape="http://www.inkscape.org/namespaces/inkscape" height="14" viewBox="0 0 11.2 11.2" width="14" id="svg2" inkscape:version="0.91 r13725" sodipodi:docname="plus-white.svg"><metadata></metadata><defs id="defs8"></defs><path d="m 5.3152542,1.6135593 c -2.5122418,0 -4.55593217,1.9478955 -4.55593217,4.3423729 0,2.3944775 2.04369037,4.3423728 4.55593217,4.3423728 2.5122419,0 4.5559322,-1.9478953 4.5559322,-4.3423728 0,-2.3944774 -2.0436903,-4.3423729 -4.5559322,-4.3423729 z" id="path4" style="fill:#5c5c5c;fill-opacity:1" inkscape:connector-curvature="0" sodipodi:nodetypes="sssss"></path><path inkscape:connector-curvature="0" style="fill:#ffffff;fill-opacity:1" id="path4133" d="M 5.6000001,-6e-7 C 2.5120361,-6e-7 0,2.5120394 0,5.5999994 0,8.68796 2.5120361,11.2 5.6000001,11.2 8.6879638,11.2 11.2,8.68796 11.2,5.5999994 c 0,-3.08796 -2.5120362,-5.6 -5.5999999,-5.6 z m 2.4499997,6.0666396 -1.9833617,0 0,1.983361 c 0,0.25763 -0.209008,0.46664 -0.466638,0.46664 -0.257629,0 -0.466638,-0.20901 -0.466638,-0.46664 l 0,-1.983361 -1.9833621,0 c -0.2576294,0 -0.4666382,-0.20901 -0.4666382,-0.4666396 0,-0.25763 0.2090088,-0.46664 0.4666382,-0.46664 l 1.9833621,0 0,-1.98336 c 0,-0.25763 0.209009,-0.46664 0.466638,-0.46664 0.25763,0 0.466638,0.20901 0.466638,0.46664 l 0,1.98336 1.9833617,0 c 0.25763,0 0.466638,0.20901 0.466638,0.46664 0,0.2576296 -0.209008,0.4666396 -0.466638,0.4666396 z m 0,0"></path></svg>